<svg width="14" height="16" viewBox="0 0 14 16" fill="none" xmlns="http://www.w3.org/2000/svg">
<path fill-rule="evenodd" clip-rule="evenodd" d="M3.34578 2.56477C3.21275 2.56429 3.08022 2.5832 2.95154 2.62102V2.6407H2.97062C3.06279 2.79653 3.16554 2.94415 3.27798 3.08227C3.35533 3.25439 3.42262 3.42595 3.49946 3.59808L3.51855 3.57614C3.58989 3.51271 3.64573 3.43008 3.68086 3.33595C3.71599 3.24182 3.72926 3.13926 3.71944 3.03783C3.67738 2.96519 3.63882 2.89008 3.60393 2.81283C3.54617 2.70539 3.42112 2.65139 3.34428 2.56533" fill="white"/>
<path fill-rule="evenodd" clip-rule="evenodd" d="M12.8856 11.9517C12.252 11.9019 11.6164 12.0047 11.0213 12.2532C10.8772 12.3179 10.6471 12.3179 10.6271 12.5221C10.7044 12.6082 10.7134 12.7471 10.7812 12.8669C10.9128 13.1164 11.0818 13.3385 11.281 13.5234C11.4818 13.6955 11.6827 13.8671 11.8962 14.0178C12.2703 14.2771 12.6937 14.4273 13.0583 14.6855C13.2703 14.8362 13.4812 15.0297 13.6931 15.1917C13.7986 15.2778 13.8654 15.4167 14 15.473V15.4404C13.9605 15.3208 13.9115 15.2054 13.8539 15.0956C13.7579 14.9887 13.6615 14.8914 13.5651 14.7839C13.2834 14.3667 12.9463 14.0002 12.5656 13.6972C12.2578 13.4598 11.5848 13.1347 11.4608 12.7409L11.4412 12.719C11.6664 12.6832 11.8884 12.6253 12.1046 12.5457C12.4311 12.449 12.7289 12.4709 13.0649 12.377C13.219 12.3337 13.4978 12.2262 13.4978 12.2262V12.0575C13.326 11.8662 13.203 11.6103 13.0222 11.4297C12.5303 10.9488 12.0061 10.511 11.4542 10.1202C11.1594 9.90706 10.7792 9.76981 10.4653 9.58812C10.3518 9.524 10.164 9.4925 10.0952 9.38562C9.93909 9.12911 9.80841 8.8543 9.70548 8.56606C9.4245 7.96016 9.16465 7.34226 8.92653 6.71375C8.78622 6.29908 8.62439 5.89395 8.44188 5.50043C7.56115 3.82332 6.28988 2.44595 4.76409 1.51568C4.3791 1.30697 3.96979 1.16003 3.54821 1.07918C3.31015 1.06793 3.0731 1.04712 2.83555 1.037C2.6822 0.924477 2.53634 0.79965 2.39912 0.663497C1.85571 0.278184 0.459525 -0.549816 0.059754 0.546497C-0.196381 1.23893 0.44044 1.91956 0.658908 2.27112C0.84312 2.51901 1.00543 2.78632 1.14355 3.06931C1.21035 3.25043 1.22943 3.44225 1.29422 3.63181C1.43363 4.11843 1.59916 4.59517 1.78992 5.05943C1.89194 5.28889 2.00947 5.50928 2.14147 5.71868C2.21831 5.83625 2.3509 5.88743 2.37953 6.0815C2.2742 6.33505 2.20052 6.60363 2.16056 6.87968C1.99455 7.46688 1.93345 8.08495 1.98076 8.69859C2.02807 9.31224 2.18285 9.90943 2.43628 10.4561C2.58695 10.7221 2.94955 11.3077 3.4342 11.0838C3.86159 10.8926 3.76667 10.2856 3.89022 9.75406C3.91834 9.62525 3.89976 9.54087 3.95651 9.45593V9.55943C3.95651 9.55943 4.19909 10.1562 4.31962 10.4594C4.64742 11.0157 5.05462 11.5079 5.52496 11.9163C5.711 12.0982 5.86089 12.3219 5.96491 12.5727V12.7657H6.17936C6.17489 12.6787 6.15336 12.5939 6.1163 12.5173C6.07923 12.4406 6.02754 12.3741 5.96491 12.3224C5.78905 12.1197 5.62799 11.9015 5.48328 11.6699C5.09016 11.0429 4.74348 10.3808 4.44669 9.6905C4.29602 9.353 4.16895 8.98287 4.04842 8.64593C3.99318 8.516 3.99318 8.31968 3.90026 8.25218C3.7287 8.47953 3.57983 8.72719 3.4563 8.99075C3.30633 9.52346 3.21904 10.0758 3.19665 10.6338C3.15999 10.6451 3.17807 10.6338 3.15999 10.6552C2.86418 10.568 2.76222 10.2097 2.65073 9.90593C2.36271 8.96912 2.33365 7.95679 2.56736 7.00118C2.63165 6.77337 2.91038 6.05562 2.79889 5.83793C2.74314 5.63037 2.55782 5.51168 2.45637 5.348C2.32686 5.12779 2.21541 4.8949 2.12339 4.65218C1.90292 4.04693 1.79142 3.37193 1.55136 2.76218C1.41847 2.46893 1.26374 2.18875 1.08881 1.92462C0.895313 1.66077 0.724627 1.37694 0.579054 1.07693C0.532849 0.957122 0.468062 0.761372 0.541889 0.630872C0.546872 0.594622 0.562264 0.561177 0.585734 0.5356C0.609204 0.510024 0.639476 0.493707 0.671966 0.489122C0.791495 0.369872 1.13451 0.521747 1.25455 0.586997C1.57715 0.729241 1.88444 0.911702 2.1706 1.13093C2.30018 1.24006 2.60553 1.51625 2.60553 1.51625H2.69593C3.00329 1.59106 3.34882 1.53706 3.6381 1.63437C4.12517 1.81622 4.59 2.06566 5.02173 2.37687C6.29421 3.28539 7.32866 4.55581 8.01951 6.05843C8.13502 6.30537 8.18374 6.53206 8.2892 6.78968C8.49009 7.31843 8.74121 7.85843 8.9421 8.37256C9.11932 8.88122 9.34852 9.36519 9.62512 9.81481C9.76876 10.0398 10.3458 10.1591 10.6055 10.2772C10.831 10.3646 11.0522 10.465 11.2684 10.5781C11.5953 10.8031 11.9213 11.0624 12.2292 11.3094C12.3823 11.4387 12.863 11.7076 12.8921 11.9231" fill="white"/>
</svg>
