<svg width="27" height="23" viewBox="0 0 27 23" fill="none" xmlns="http://www.w3.org/2000/svg">
<path d="M12.3576 16.5442L5.07432 9.21629C4.21478 8.3541 4.91334 7 6.21784 7H20.7844C21.0764 6.99978 21.3622 7.07364 21.6077 7.21273C21.8532 7.35182 22.0479 7.55024 22.1686 7.78425C22.2892 8.01825 22.3307 8.27791 22.288 8.53212C22.2454 8.78634 22.1203 9.02434 21.9279 9.21762L14.6446 16.5429C14.5021 16.6864 14.3263 16.8015 14.1291 16.8804C13.9319 16.9592 13.7177 17 13.5011 17C13.2845 17 13.0704 16.9592 12.8732 16.8804C12.6759 16.8015 12.5001 16.6864 12.3576 16.5429V16.5442Z" fill="#949494" fill-opacity="0.53"/>
</svg>
